<?xml version="1.0" encoding="utf-8"?>
<!-- Generator: Adobe Illustrator 20.1.0, SVG Export Plug-In . SVG Version: 6.00 Build 0)  -->
<svg version="1.1" id="Layer_1" xmlns="http://www.w3.org/2000/svg" xmlns:xlink="http://www.w3.org/1999/xlink" x="0px" y="0px"
	 viewBox="0 0 399 510.3" style="enable-background:new 0 0 399 510.3;" xml:space="preserve">
<style type="text/css">
	.st0{fill:#32C5D2;}
</style>
<title>cost</title>
<path class="st0" d="M330.4,250.5c-16.4-24.2-37.3-42.9-54.1-57.8c-15.1-13.4-28.3-25.2-31.7-35.5c9.7-3.8,14.5-14.6,10.7-24.3
	c-1.8-4.7-5.5-8.5-10.2-10.5l13.9-54.5c1.5-5.3,0.5-10.1-2.6-13.3s-8-4.3-13.4-2.9l-0.3,0.1c-0.3,0.1-26.2,8.4-34.8,10.8
	c-5.6,1.6-15.4,1.6-21,0c-8.7-2.5-34.9-10.7-35.1-10.8l-0.3-0.1c-5.3-1.4-10.2-0.3-13.4,2.9c-3.2,3.2-4.1,8.2-2.6,13.4l0.1,0.2
	l17.6,54.4c-9.5,4.3-13.7,15.4-9.4,24.8c2,4.5,5.7,8,10.3,9.8c-3.3,10.2-16.6,22.1-31.7,35.5c-16.8,15-37.7,33.6-54.1,57.8
	c-19.3,28.6-28.6,59.3-28.6,94c0,31.2,12.6,59.9,35.4,80.7c24.4,22.3,58.5,34.1,98.6,34.1h51.2c40.1,0,74.2-11.8,98.6-34.1
	c22.8-20.8,35.4-49.5,35.4-80.7C359.1,309.9,349.7,279.1,330.4,250.5L330.4,250.5z M212.2,146.5h-51.1c-3.8,0-6.8-3-6.8-6.8
	s3-6.8,6.8-6.8h76.8c3.8,0,6.8,3,6.8,6.8s-3,6.8-6.8,6.8H212.2z M147,63c0.5,0,1,0,1.5,0.2c2.5,0.8,26.7,8.5,35.3,10.9
	c7.7,2.2,19.9,2.2,27.6,0c8.5-2.4,32.5-10.1,34.9-10.9c0.5-0.1,1-0.2,1.5-0.2c0,0.5-0.1,1.1-0.2,1.6l0,0.2l-14.3,56h-19.6l4.5-18.1
	c0.8-3.2-1.1-6.5-4.4-7.3s-6.5,1.1-7.3,4.4l0,0l-5.3,21.1h-3.4l-5.2-21.1c-0.9-3.2-4.1-5.1-7.3-4.3c-3.1,0.8-5,4-4.3,7.2l4.5,18.1
	h-20l-18.3-56.3C147,64.1,147,63.6,147,63L147,63z M315.6,416.4c-22.2,20.2-53.5,30.9-90.6,30.9h-51.2c-37.1,0-68.4-10.7-90.6-30.9
	c-20.3-18.5-31.4-44-31.4-71.9c0-72.7,45.5-113.3,78.7-142.9c17.9-16,32.5-29,35.8-43.1h12l-3.8,11.3c-1.1,3.1,0.6,6.5,3.7,7.6
	c3.1,1.1,6.5-0.6,7.6-3.7c0-0.1,0-0.1,0.1-0.2l5-15.1h17l5,15.1c1.1,3.1,4.5,4.8,7.6,3.7c3.1-1.1,4.7-4.4,3.7-7.5l-3.8-11.3h12
	c3.3,14.2,17.9,27.2,35.8,43.1c33.2,29.6,78.7,70.1,78.7,142.9C347.1,372.3,335.9,397.9,315.6,416.4L315.6,416.4z"/>
<path class="st0" d="M199.5,280.1c14.1,0,26,7.5,26,16.4c0,3.3,2.7,6,6,6c3.3,0,6-2.7,6-6c0-14.4-13.6-26-32-28.1v-7.1
	c0-3.3-2.7-6-6-6c-3.3,0-6,2.7-6,6v7.1c-18.4,2.1-32,13.7-32,28.1c0,15.9,16.7,28.4,38,28.4c14.1,0,26,7.5,26,16.4
	c0,8.9-11.9,16.4-26,16.4s-26-7.5-26-16.4c0-3.3-2.7-6-6-6s-6,2.7-6,6c0,14.4,13.6,26,32,28.1v7.1c0,3.3,2.7,6,6,6c3.3,0,6-2.7,6-6
	v-7.1c18.4-2.1,32-13.7,32-28.1c0-15.9-16.7-28.4-38-28.4c-14.1,0-26-7.5-26-16.4C173.5,287.6,185.4,280.1,199.5,280.1z"/>
<path class="st0" d="M199.5,223.3c-52.8,0-95.6,42.8-95.6,95.6s42.8,95.6,95.6,95.6s95.6-42.8,95.6-95.6
	C295,266.1,252.3,223.4,199.5,223.3z M199.5,402.5c-46.2,0-83.6-37.4-83.6-83.6s37.4-83.6,83.6-83.6s83.6,37.4,83.6,83.6l0,0
	C283,365.1,245.6,402.4,199.5,402.5L199.5,402.5z"/>
</svg>
