<svg id="Capa_1" data-name="Capa 1" xmlns="http://www.w3.org/2000/svg" viewBox="0 0 58 57"><defs><style>.cls-1{fill:#32c5d2;}</style></defs><title>deadline</title><path class="cls-1" d="M42.9,4.5A5,5,0,0,0,38,.5a1,1,0,0,0,0,2,3,3,0,0,1,0,6,1,1,0,0,0,0,2,5,5,0,0,0,4.9-4H56v7H2v-7H19a1,1,0,0,0,0-2H17.18A3,3,0,1,1,20,8.5a1,1,0,0,0,0,2,5,5,0,1,0-4.9-6H0v53H58V4.5ZM30,15.5H42v12H30Zm12,26H30v-12H42Zm-26-12H28v12H16Zm0-14H28v12H16Zm-14,1v-1H14v12H2Zm0,13H14v12H2Zm0,26v-12H14v12Zm14,0v-12H28v12Zm14,0v-12H42v12Zm26,0H44v-12H56Zm0-14H44v-12H56Zm-12-14v-12H56v12Z" transform="translate(0 -0.5)"/><path class="cls-1" d="M26,2.5a3,3,0,0,1,0,6,1,1,0,0,0,0,2,5,5,0,0,0,0-10,1,1,0,0,0,0,2Z" transform="translate(0 -0.5)"/><path class="cls-1" d="M32,2.5a3,3,0,0,1,0,6,1,1,0,0,0,0,2,5,5,0,0,0,0-10,1,1,0,0,0,0,2Z" transform="translate(0 -0.5)"/><path class="cls-1" d="M31.29,40.21a1,1,0,0,0,1.41,0L36,36.91l3.29,3.29a1,1,0,0,0,1.41-1.41L37.41,35.5l3.29-3.29a1,1,0,0,0-1.41-1.41L36,34.09l-3.29-3.29a1,1,0,0,0-1.41,1.41l3.29,3.29-3.29,3.29A1,1,0,0,0,31.29,40.21Z" transform="translate(0 -0.5)"/></svg>