<svg id="Capa_1" data-name="Capa 1" xmlns="http://www.w3.org/2000/svg" viewBox="0 0 60.02 60"><defs><style>.cls-1{fill:#32c5d2;}</style></defs><title>description</title><path class="cls-1" d="M59.14,3.73,56.29.88a3,3,0,0,0-4.22,0L48.95,4H0V60H56V11.1l.31-.31h0L59.14,8A3,3,0,0,0,59.14,3.73ZM20,36.76,23.27,40l-4.43,1.21Zm32-24.55L47.82,8l1.41-1.41,4.24,4.24Zm-1.41,1.41L25.19,39.08l-4.24-4.24L46.41,9.38ZM54,13.1V58H2V6H46.95L18.83,34.13l-.19.19-2.12,7.78-1.23,1.23a1,1,0,1,0,1.41,1.41l1.23-1.23,7.78-2.12L52.06,15h0l.45-.45Zm3.73-6.56L54.89,9.38,50.65,5.14,53.49,2.3a1,1,0,0,1,1.39,0l2.85,2.85A1,1,0,0,1,57.73,6.54Z" transform="translate(0 -0.01)"/></svg>