<svg id="Layer_1" data-name="Layer 1" xmlns="http://www.w3.org/2000/svg" viewBox="0 0 11.88 8.91"><defs><style>.cls-1{fill:#32c5d2;}</style></defs><title>email</title><path class="cls-1" d="M5,.46h5.72c.22,0,.22,0,.22.22V9.26c0,.11,0,.11-.22.11H-.72c-.22,0-.22,0-.22-.11V.68c0-.22,0-.22.22-.22Zm.11,8.8H9.18c.11,0,.11,0,.11-.11V7.94A.78.78,0,0,0,9,7.28,27.24,27.24,0,0,1,6.1,5.19c-.11-.11-.11-.11-.22,0a2.92,2.92,0,0,1-.66.55H5.11l-.77-.66c-.11-.11-.11,0-.11,0s-.33.22-.44.44c-.44.33-.77.66-1.21,1l-1.32,1a.11.11,0,0,0-.11.11V9c0,.11,0,.11.11.11C2.36,9.26,3.79,9.26,5.11,9.26ZM1.48.57h0L3.9,3l1,1C5,4.09,5,4.09,5,4L6,3.1,7.09,2A17.53,17.53,0,0,0,8.52.57L8.63.46H8.52C8.52.57,1.48.57,1.48.57Zm7.7,1.76h0a11.65,11.65,0,0,1-1.32,1.1,9.62,9.62,0,0,1-1.1.88A4.78,4.78,0,0,1,6,5s-.11.11,0,.11l.33.22a26.68,26.68,0,0,1,2.2,1.54c.22.11.44.33.66.44ZM.93,7.28a2,2,0,0,1,.77-.55c.66-.55,1.43-1.1,2.09-1.65.11-.11.11-.11,0-.22-.88-.77-1.65-1.43-2.53-2.09C1.15,2.66,1,2.55.93,2.55Z" transform="translate(0.94 -0.46)"/></svg>