<svg id="Layer_1" data-name="Layer 1" xmlns="http://www.w3.org/2000/svg" viewBox="0 0 10.11 10.08"><defs><style>.cls-1{fill:#32c5d2;}</style></defs><title>linkedin</title><path class="cls-1" d="M.1.62c.06,0,0,0,0-.06A.94.94,0,0,1,.79-.28a1.19,1.19,0,0,1,1,.09,1.09,1.09,0,0,1,.42.48,1.36,1.36,0,0,1,.09.48,1,1,0,0,1-.69.93,1.05,1.05,0,0,1-1-.12c0-.06-.06-.12-.15-.12h0s0-.06,0-.06A1,1,0,0,1,.15.83s0-.06,0-.06A.22.22,0,0,1,.1.62Z" transform="translate(-0.1 0.34)"/><path class="cls-1" d="M5.59,3.89a.4.4,0,0,0,.15-.18A2,2,0,0,1,6.55,3,2.65,2.65,0,0,1,8,2.81a2.1,2.1,0,0,1,1,.36,2.52,2.52,0,0,1,.87,1,3.37,3.37,0,0,1,.24.78,6.83,6.83,0,0,1,.06.78v3.9c0,.09,0,.12-.12.12H8.26c-.09,0-.12,0-.12-.12V5.93A1.59,1.59,0,0,0,8,5.12a1.06,1.06,0,0,0-.54-.48,1.5,1.5,0,0,0-1-.06,1.11,1.11,0,0,0-.72.6,1.6,1.6,0,0,0-.15.54,4,4,0,0,0,0,.6V9.59c0,.09,0,.12-.12.12H3.61c-.09,0-.12,0-.12-.09V3.11c0-.09,0-.12.12-.12H5.44c.09,0,.12,0,.12.12A6.78,6.78,0,0,1,5.59,3.89Z" transform="translate(-0.1 0.34)"/><path class="cls-1" d="M2.26,3.08V9.62c0,.12,0,.12-.12.12H.22V3.2a.08.08,0,0,1,.09-.09C1,3.08,1.6,3.08,2.26,3.08Z" transform="translate(-0.1 0.34)"/><path class="cls-1" d="M2.26,3.08H.31c-.09,0-.09,0-.09.09V9.71s-.06,0-.06-.06V3.17C.16,3,.16,3,.31,3H2.14C2.2,3.05,2.22,3,2.26,3.08Z" transform="translate(-0.1 0.34)"/><path class="cls-1" d="M.42,1.46a.2.2,0,0,1,.15.12C.49,1.58.46,1.52.42,1.46Z" transform="translate(-0.1 0.34)"/><path class="cls-1" d="M.37,1.43s0,0,0,.06S.37,1.46.37,1.43Z" transform="translate(-0.1 0.34)"/></svg>