<?xml version="1.0" encoding="utf-8"?>
<!-- Generator: Adobe Illustrator 20.1.0, SVG Export Plug-In . SVG Version: 6.00 Build 0)  -->
<svg version="1.1" id="Layer_1" xmlns="http://www.w3.org/2000/svg" xmlns:xlink="http://www.w3.org/1999/xlink" x="0px" y="0px"
	 viewBox="0 0 479 511" style="enable-background:new 0 0 479 511;" xml:space="preserve">
<style type="text/css">
	.st0{fill:#32C5D2;}
</style>
<title>obstacles</title>
<path class="st0" d="M375.5,38.3H76.3c-7.3,0-13.2,5.9-13.2,13.2v14h-14c-7.3,0-13.2,5.9-13.2,13.2v380.8c0,7.3,5.9,13.2,13.2,13.2
	h299.2c7.3,0,13.2-5.9,13.2-13.2v-14h14c7.3,0,13.2-5.9,13.2-13.2V51.5C388.7,44.2,382.8,38.3,375.5,38.3z M348.7,439
	C348.7,439,348.7,439.1,348.7,439c0,0.1,0,0.1,0,0.1v20.3c0,0.2-0.2,0.4-0.4,0.4H49.1c-0.2,0-0.4-0.2-0.4-0.4V78.7
	c0-0.2,0.2-0.4,0.4-0.4h299.2c0.2,0,0.4,0.2,0.4,0.4V439z M375.9,432.3c0,0.2-0.2,0.4-0.4,0.4h-14v-354c0-7.3-5.9-13.2-13.2-13.2
	H75.9v-14c0-0.2,0.2-0.4,0.4-0.4h299.2c0.2,0,0.4,0.2,0.4,0.4V432.3z"/>
<path class="st0" d="M307.1,126.7H89.5c-3.5,0-6.4,2.9-6.4,6.4c0,3.5,2.9,6.4,6.4,6.4h217.6c3.5,0,6.4-2.9,6.4-6.4
	C313.5,129.6,310.6,126.7,307.1,126.7z"/>
<path class="st0" d="M307.1,208.3H89.5c-3.5,0-6.4,2.9-6.4,6.4s2.9,6.4,6.4,6.4h217.6c3.5,0,6.4-2.9,6.4-6.4
	S310.6,208.3,307.1,208.3z"/>
<path class="st0" d="M307.1,398.7H89.5c-3.5,0-6.4,2.9-6.4,6.4c0,3.5,2.9,6.4,6.4,6.4h217.6c3.5,0,6.4-2.9,6.4-6.4
	C313.5,401.6,310.6,398.7,307.1,398.7z"/>
<path class="st0" d="M307.1,289.9H89.5c-3.5,0-6.4,2.9-6.4,6.4c0,3.5,2.9,6.4,6.4,6.4h217.6c3.5,0,6.4-2.9,6.4-6.4
	C313.5,292.8,310.6,289.9,307.1,289.9z"/>
<path class="st0" d="M89.5,166.7h54.4c3.5,0,6.4-2.9,6.4-6.4s-2.9-6.4-6.4-6.4H89.5c-3.5,0-6.4,2.9-6.4,6.4S86,166.7,89.5,166.7z"/>
<path class="st0" d="M307.1,153.9h-136c-3.5,0-6.4,2.9-6.4,6.4s2.9,6.4,6.4,6.4h136c3.5,0,6.4-2.9,6.4-6.4S310.6,153.9,307.1,153.9z
	"/>
<path class="st0" d="M89.5,193.9h163.2c3.5,0,6.4-2.9,6.4-6.4s-2.9-6.4-6.4-6.4H89.5c-3.5,0-6.4,2.9-6.4,6.4S86,193.9,89.5,193.9z"
	/>
<path class="st0" d="M307.1,181.1h-27.2c-3.5,0-6.4,2.9-6.4,6.4s2.9,6.4,6.4,6.4h27.2c3.5,0,6.4-2.9,6.4-6.4
	S310.6,181.1,307.1,181.1z"/>
<path class="st0" d="M307.1,371.5H89.5c-3.5,0-6.4,2.9-6.4,6.4c0,3.5,2.9,6.4,6.4,6.4h217.6c3.5,0,6.4-2.9,6.4-6.4
	C313.5,374.4,310.6,371.5,307.1,371.5z"/>
<path class="st0" d="M89.5,329.9h54.4c3.5,0,6.4-2.9,6.4-6.4s-2.9-6.4-6.4-6.4H89.5c-3.5,0-6.4,2.9-6.4,6.4S86,329.9,89.5,329.9z"/>
<path class="st0" d="M307.1,317.1h-136c-3.5,0-6.4,2.9-6.4,6.4s2.9,6.4,6.4,6.4h136c3.5,0,6.4-2.9,6.4-6.4S310.6,317.1,307.1,317.1z
	"/>
<path class="st0" d="M89.5,357.1h163.2c3.5,0,6.4-2.9,6.4-6.4c0-3.5-2.9-6.4-6.4-6.4H89.5c-3.5,0-6.4,2.9-6.4,6.4
	C83.1,354.2,86,357.1,89.5,357.1z"/>
<path class="st0" d="M307.1,344.3h-27.2c-3.5,0-6.4,2.9-6.4,6.4c0,3.5,2.9,6.4,6.4,6.4h27.2c3.5,0,6.4-2.9,6.4-6.4
	C313.5,347.2,310.6,344.3,307.1,344.3z"/>
<path class="st0" d="M89.5,248.3h88.4c3.5,0,6.4-2.9,6.4-6.4c0-3.5-2.9-6.4-6.4-6.4H89.5c-3.5,0-6.4,2.9-6.4,6.4
	C83.1,245.4,86,248.3,89.5,248.3z"/>
<path class="st0" d="M307.1,235.5h-102c-3.5,0-6.4,2.9-6.4,6.4c0,3.5,2.9,6.4,6.4,6.4h102c3.5,0,6.4-2.9,6.4-6.4
	C313.5,238.4,310.6,235.5,307.1,235.5z"/>
<path class="st0" d="M89.5,275.5h142.8c3.5,0,6.4-2.9,6.4-6.4c0-3.5-2.9-6.4-6.4-6.4H89.5c-3.5,0-6.4,2.9-6.4,6.4
	C83.1,272.6,86,275.5,89.5,275.5z"/>
<path class="st0" d="M307.1,262.7h-47.6c-3.5,0-6.4,2.9-6.4,6.4c0,3.5,2.9,6.4,6.4,6.4h47.6c3.5,0,6.4-2.9,6.4-6.4
	C313.5,265.6,310.6,262.7,307.1,262.7z"/>
<path class="st0" d="M423.1,160.7c-11,0-20,8.9-20,20v238c0,0.7,0.1,1.4,0.3,2l13.3,39.8v5.8c0,3.5,2.9,6.4,6.4,6.4
	c3.5,0,6.4-2.9,6.4-6.4l0,0v-5.8l13.3-39.8c0.2-0.6,0.3-1.3,0.3-2v-238C443.1,169.7,434.1,160.7,423.1,160.7z M423.1,439.3l-7-21.1
	h14L423.1,439.3L423.1,439.3z M430.3,405.5h-14.5V200.7h14.5V405.5z M430.3,187.9h-14.5v-7.2c0-4,3.2-7.2,7.2-7.2s7.2,3.2,7.2,7.2
	V187.9z"/>
</svg>
