<svg id="Layer_1" data-name="Layer 1" xmlns="http://www.w3.org/2000/svg" viewBox="0 0 6.03 9.83"><defs><style>.cls-1{fill:#32c5d2;}.cls-2{fill:#fff;}</style></defs><title>phone</title><path class="cls-1" d="M2,9.24V.76A.88.88,0,0,1,2.44.21c.1,0,.23-.08.33-.12H7.19s0,0,.05,0A.82.82,0,0,1,8,.91V9.09a.83.83,0,0,1-.85.8H2.86a.9.9,0,0,1-.8-.45A1.72,1.72,0,0,1,2,9.24Zm.6-7.45V8.31H7.44V1.79ZM5.41,9A.41.41,0,0,0,5,8.66a.39.39,0,0,0-.43.4.43.43,0,0,0,.85,0ZM5,1H4.59a.21.21,0,0,0-.12.07s.08.1.13.1h.85c.05,0,.07,0,.13-.1S5.49,1,5.44,1Z" transform="translate(-1.99 -0.09)"/><path class="cls-2" d="M2,9.24l.07.2a.85.85,0,0,0,.8.45H7.11A.82.82,0,0,0,8,9.11V.91a.81.81,0,0,0-.72-.8s0,0-.05,0H8V9.91H2A5.87,5.87,0,0,0,2,9.24Z" transform="translate(-1.99 -0.09)"/><path class="cls-2" d="M2.79.09a1.74,1.74,0,0,0-.33.12A.88.88,0,0,0,2,.76V.09Z" transform="translate(-1.99 -0.09)"/><path class="cls-2" d="M2.59,1.79H7.44V8.31H2.59Z" transform="translate(-1.99 -0.09)"/><path class="cls-2" d="M5.41,9a.42.42,0,0,1-.42.4.4.4,0,0,1-.42-.37h0A.42.42,0,0,1,5,8.66.4.4,0,0,1,5.41,9Z" transform="translate(-1.99 -0.09)"/><path class="cls-2" d="M5,1h.42a.21.21,0,0,1,.13.08c-.05,0-.07.1-.12.1H4.59s-.08,0-.12-.1S4.54,1,4.59,1Z" transform="translate(-1.99 -0.09)"/></svg>