<svg id="Layer_1" data-name="Layer 1" xmlns="http://www.w3.org/2000/svg" viewBox="0 0 511 511"><defs><style>.cls-1{fill:#32c5d2;}</style></defs><title>resources</title><path class="cls-1" d="M503.5,248h-8.63A239.46,239.46,0,0,0,263,16.13V7.5a7.5,7.5,0,1,0-15,0v8.63A239.46,239.46,0,0,0,16.13,248H7.5a7.5,7.5,0,1,0,0,15h8.63A239.46,239.46,0,0,0,248,494.87v8.63a7.5,7.5,0,0,0,15,0v-8.63A239.46,239.46,0,0,0,494.87,263h8.63a7.5,7.5,0,0,0,0-15ZM435.58,121.38l-64.11,64.11a136.54,136.54,0,0,0-46-46l64.11-64.11a227.92,227.92,0,0,1,46,46ZM363.52,308.86a7.41,7.41,0,0,0-.92,1.83,121.33,121.33,0,0,1-51.91,51.91,7.43,7.43,0,0,0-1.84.92,120.31,120.31,0,0,1-106.71,0,7.42,7.42,0,0,0-1.83-.92,121.33,121.33,0,0,1-51.91-51.91,7.41,7.41,0,0,0-.92-1.83,120.31,120.31,0,0,1,0-106.71,7.43,7.43,0,0,0,.93-1.84,121.33,121.33,0,0,1,51.91-51.91,7.41,7.41,0,0,0,1.83-.92,120.31,120.31,0,0,1,106.71,0,7.4,7.4,0,0,0,1.84.93,121.33,121.33,0,0,1,51.91,51.91,7.41,7.41,0,0,0,.92,1.84,120.31,120.31,0,0,1,0,106.71ZM255.5,480a223,223,0,0,1-121.61-35.72l65.47-65.47a135.38,135.38,0,0,0,112.27,0l65.47,65.47A223,223,0,0,1,255.5,480Zm0-449A223,223,0,0,1,377.11,66.72l-65.47,65.47a135.38,135.38,0,0,0-112.27,0L133.89,66.72A223,223,0,0,1,255.5,31ZM96.75,96.75a227.74,227.74,0,0,1,24.63-21.33l64.11,64.11a136.54,136.54,0,0,0-46,46L75.42,121.39A227.62,227.62,0,0,1,96.75,96.75Zm-30,37.14,65.47,65.47a135.38,135.38,0,0,0,0,112.27L66.72,377.11a224.88,224.88,0,0,1,0-243.21Zm8.71,255.73,64.11-64.11a136.55,136.55,0,0,0,46,46l-64.11,64.11a228,228,0,0,1-46-46Zm338.83,24.63a227.87,227.87,0,0,1-24.63,21.33l-64.11-64.11a136.54,136.54,0,0,0,46-46l64.11,64.11A227.81,227.81,0,0,1,414.25,414.25Zm30-37.14-65.47-65.47a135.39,135.39,0,0,0,0-112.28l65.47-65.47a224.88,224.88,0,0,1,0,243.22Z" transform="translate(0 0)"/></svg>