<svg id="Layer_1" data-name="Layer 1" xmlns="http://www.w3.org/2000/svg" viewBox="0 0 511 422.93"><defs><style>.cls-1{fill:#32c5d2;}</style></defs><title>team</title><path class="cls-1" d="M401.38,349.89a7.46,7.46,0,0,0-.91-.2l-62.41-9.36C328,333.81,327,317.61,327,300.08c19.71-20.31,32-48.91,32-80.54V217a71.16,71.16,0,0,0,24-53.44v-48A71.58,71.58,0,0,0,311.5,44h-104a31.56,31.56,0,0,0-30.69,24.4A55.59,55.59,0,0,0,128,123.54v40A71.15,71.15,0,0,0,152,217v2.56c0,31.63,12.29,60.23,32,80.54,0,17.54-1,33.73-11.06,40.26l-62.41,9.36a7.49,7.49,0,0,0-.91.2,60.34,60.34,0,0,0-33.77,24.61,68.18,68.18,0,0,0-11.85,38v31C64,456.46,75.53,467,89.69,467H421.31c14.17,0,25.69-10.51,25.69-23.43v-31a68.18,68.18,0,0,0-11.85-38,60.34,60.34,0,0,0-33.77-24.62ZM255.5,331a97.69,97.69,0,0,0,56.75-18.3c.72,13.69,3.56,28.88,14.69,38C320.92,381.41,291,404,255.5,404s-65.42-22.63-71.44-53.27c11.13-9.15,14-24.34,14.69-38A97.69,97.69,0,0,0,255.5,331ZM167,214.23a7.54,7.54,0,0,0,0-1.37V171.53A24.53,24.53,0,0,1,191.5,147h136a7.5,7.5,0,0,0,0-15h-136a39.55,39.55,0,0,0-39.5,39.5v22.6a56.26,56.26,0,0,1-9-30.6v-40A40.55,40.55,0,0,1,183.5,83a7.5,7.5,0,0,0,7.5-7.5A16.52,16.52,0,0,1,207.5,59h104a56.56,56.56,0,0,1,56.5,56.5v48a56.26,56.26,0,0,1-9,30.6v-30.6a7.5,7.5,0,0,0-15,0v56c0,53.21-39.7,96.5-88.5,96.5S167,272.74,167,219.53v-5.31ZM432,443.54c0,4.57-4.9,8.43-10.69,8.43H89.69C83.9,452,79,448.11,79,443.54v-31c0-19,11.76-41.54,34.24-48.08L169.82,356C178.21,392.41,213.67,419,255.5,419s77.29-26.62,85.68-63.06l56.59,8.49C420.24,371,432,393.54,432,412.54v31Z" transform="translate(0 -44.04)"/><path class="cls-1" d="M47.5,380H19.27c-2.44,0-4.27-1.48-4.27-2.81V357.18c0-11.26,6.89-24.59,20.08-28.52l40.83-6.12.52-.11.23,0a7.4,7.4,0,0,0,.82-.26l.19-.08q.33-.13.64-.3l.11,0,.19-.11.17-.1c9.09-5.18,12.23-14.57,13.32-23.74a65.34,65.34,0,0,0,62.77,2.39,7.5,7.5,0,1,0-6.68-13.43A50.22,50.22,0,0,1,125.61,292C95.5,292,71,265.2,71,232.23v-32A13.22,13.22,0,0,1,84.2,187h19.3a7.5,7.5,0,1,0,0-15H84.2A28.24,28.24,0,0,0,56,200.24v3.93A34.07,34.07,0,0,1,55,196V170.12a23.58,23.58,0,0,1,23.56-23.56,7.5,7.5,0,0,0,7.5-7.5,8,8,0,0,1,8-8h9.42a7.5,7.5,0,0,0,0-15H94.08a23.07,23.07,0,0,0-22,16.06,38.62,38.62,0,0,0-32.13,38V196a48.66,48.66,0,0,0,16,36.17v.06a77.28,77.28,0,0,0,21.63,54.1c-.08,9.54-.81,18.09-5.53,21.6l-39.74,6a7.49,7.49,0,0,0-.91.2C10.8,319.88,0,340.15,0,357.18v20.05C0,387,8.65,395,19.27,395H47.5a7.5,7.5,0,1,0,0-15Z" transform="translate(0 -44.04)"/><path class="cls-1" d="M479.55,314.09a7.65,7.65,0,0,0-.91-.2l-39.74-6c-4.71-3.51-5.45-12.06-5.53-21.6A77.28,77.28,0,0,0,455,232.23v-.06A48.67,48.67,0,0,0,471,196V155.53A39.55,39.55,0,0,0,431.5,116h-24a7.5,7.5,0,0,0,0,15h24a24.53,24.53,0,0,1,24.5,24.5V196a34.07,34.07,0,0,1-1,8.17v-3.93a28.24,28.24,0,0,0-28.2-28.2H407.5a7.5,7.5,0,0,0,0,15h19.3a13.22,13.22,0,0,1,13.2,13.2v32c0,33-24.5,59.79-54.61,59.79a50.21,50.21,0,0,1-22.55-5.32,7.5,7.5,0,1,0-6.68,13.43,65.34,65.34,0,0,0,62.77-2.39c1.08,9.17,4.23,18.56,13.32,23.74l.17.1.19.11.11,0q.31.16.64.3l.19.08a7.37,7.37,0,0,0,.82.26l.23,0,.52.1,40.83,6.13c13.18,3.93,20.08,17.26,20.08,28.52v20.05c0,1.33-1.83,2.81-4.27,2.81H463.5a7.5,7.5,0,0,0,0,15h28.23c10.63,0,19.27-8,19.27-17.81V357.18c0-17-10.8-37.3-31.45-43.08Z" transform="translate(0 -44.04)"/></svg>